<?xml version="1.0" encoding="iso-8859-1"?>
<!-- Generator: Adobe Illustrator 16.0.4, SVG Export Plug-In . SVG Version: 6.00 Build 0)  -->
<!DOCTYPE svg PUBLIC "-//W3C//DTD SVG 1.1//EN" "http://www.w3.org/Graphics/SVG/1.1/DTD/svg11.dtd">
<svg version="1.1" id="Layer_1" xmlns="http://www.w3.org/2000/svg" xmlns:xlink="http://www.w3.org/1999/xlink" x="0px" y="0px"
	 width="346px" height="170px" viewBox="0 0 346 170" style="enable-background:new 0 0 346 170;" xml:space="preserve">
<g>
	<path style="fill:#FFFFFF;" d="M129.826,112.793c2.468,1.296,5.661,2.079,8.419,2.079c4.732,0,9.493-2.682,9.493-8.104
		c0-3.856-2.438-5.724-5.806-6.507l-1.8-0.422c-0.61-0.151-1.597-0.271-1.597-1.115c0-0.934,1.016-1.205,1.712-1.205
		c1.713,0,3.252,0.754,4.616,1.718l2.148-5.814c-2.148-1.356-4.442-1.988-6.938-1.988c-4.761,0-9.493,3.013-9.493,8.405
		c0,3.555,2.613,5.453,5.719,6.025l1.597,0.301c0.726,0.15,1.771,0.241,1.771,1.266s-1.248,1.355-2.032,1.355
		c-1.829,0-3.542-0.934-4.964-2.079l-0.406-0.331L129.826,112.793L129.826,112.793z"/>
	<path style="fill:#FFFFFF;" d="M149.372,98.513v9.038c0,5.062,4.238,7.321,8.709,7.321c4.471,0,8.709-2.26,8.709-7.321v-9.038
		h-7.432v8.255c0,0.935-0.058,1.929-1.277,1.929c-1.22,0-1.277-0.994-1.277-1.929v-8.255H149.372L149.372,98.513z"/>
	<path style="fill:#FFFFFF;" d="M176.504,98.513h-7.315v15.998h7.49v-7.804c0-0.934,0-2.259,1.248-2.259
		c1.277,0,1.277,1.325,1.277,2.259v7.804h7.49v-9.852c0-3.525-1.51-6.508-5.342-6.508c-2.41,0-3.513,1.175-4.965,2.923h-0.174
		L176.504,98.513L176.504,98.513z"/>
	<path style="fill-rule:evenodd;clip-rule:evenodd;fill:#FFFFFF;" d="M197.978,104.237c1.132,0,1.945,1.084,1.945,2.199
		c0,1.084-0.784,2.35-1.945,2.35c-1.248,0-1.916-1.084-1.916-2.29C196.062,105.321,196.729,104.237,197.978,104.237L197.978,104.237
		z M200.126,114.511h7.025V90.077h-7.49v6.749l0.349,3.826h-0.262c-1.045-1.477-2.902-2.501-4.645-2.501
		c-4.354,0-6.416,4.519-6.416,8.496c0,3.826,2.207,8.225,6.387,8.225c2.003,0,3.774-1.115,5.022-2.742h0.174L200.126,114.511
		L200.126,114.511z"/>
	<path style="fill-rule:evenodd;clip-rule:evenodd;fill:#FFFFFF;" d="M227.441,107.822c0.377-5.995-3.948-9.671-9.436-9.671
		c-4.906,0-8.854,3.314-8.854,8.616c0,5.514,4.442,8.104,9.29,8.104c3.542,0,7.693-1.777,8.681-5.634h-7.287
		c-0.146,0.753-0.726,1.325-1.51,1.325c-1.567,0-1.771-1.446-1.771-2.741H227.441L227.441,107.822z M216.555,104.509
		c0-1.115,0.552-2.079,1.684-2.079c1.074,0,1.829,0.994,1.829,2.079H216.555L216.555,104.509z"/>
	<path style="fill:#FFFFFF;" d="M242.123,98.151c-2.525-0.061-3.89,0.392-5.226,2.501h-0.174l0.174-2.14h-7.489v15.998h7.489v-6.146
		c0-1.988,0.987-3.193,2.933-3.193c0.958,0,1.51,0.392,2.293,0.874V98.151L242.123,98.151z"/>
	<polygon style="fill:#FFFFFF;" points="243.515,114.511 251.005,114.511 251.005,90.077 243.515,90.077 243.515,114.511 	"/>
	<path style="fill-rule:evenodd;clip-rule:evenodd;fill:#FFFFFF;" d="M260.521,106.437c0-1.175,0.755-2.199,1.945-2.199
		s2.003,0.903,2.003,2.139s-0.58,2.41-2.003,2.41C261.103,108.786,260.521,107.702,260.521,106.437L260.521,106.437z
		 M264.237,114.511h7.345V98.513h-7.345l0.232,1.898h-0.174c-1.104-1.566-2.642-2.26-4.5-2.26c-4.354,0-6.706,4.398-6.706,8.436
		c0,3.887,2.322,8.285,6.503,8.285c2.119,0,3.339-0.965,4.703-2.471h0.174L264.237,114.511L264.237,114.511z"/>
	<path style="fill:#FFFFFF;" d="M281.393,98.513h-7.316v15.998h7.49v-7.804c0-0.934,0-2.259,1.248-2.259
		c1.277,0,1.277,1.325,1.277,2.259v7.804h7.49v-9.852c0-3.525-1.51-6.508-5.342-6.508c-2.409,0-3.513,1.175-4.964,2.923h-0.175
		L281.393,98.513L281.393,98.513z"/>
	<path style="fill-rule:evenodd;clip-rule:evenodd;fill:#FFFFFF;" d="M302.865,104.237c1.133,0,1.945,1.084,1.945,2.199
		c0,1.084-0.783,2.35-1.945,2.35c-1.248,0-1.916-1.084-1.916-2.29C300.949,105.321,301.617,104.237,302.865,104.237L302.865,104.237
		z M305.014,114.511h7.025V90.077h-7.489v6.749l0.348,3.826h-0.261c-1.046-1.477-2.903-2.501-4.646-2.501
		c-4.354,0-6.415,4.519-6.415,8.496c0,3.826,2.206,8.225,6.387,8.225c2.003,0,3.773-1.115,5.021-2.742h0.175L305.014,114.511
		L305.014,114.511z"/>
	<path style="fill:#FFFFFF;" d="M143.151,55.344v12.653c0,1.777-0.058,3.344-2.177,3.344s-2.177-1.567-2.177-3.344V55.344h-7.955
		v13.437c0,6.628,4.006,9.641,10.132,9.641s10.132-3.013,10.132-9.641V55.344H143.151L143.151,55.344z"/>
	<path style="fill:#FFFFFF;" d="M160.562,62.062h-7.315V78.06h7.49v-7.803c0-0.934,0-2.26,1.248-2.26
		c1.277,0,1.277,1.326,1.277,2.26v7.803h7.49v-9.852c0-3.525-1.51-6.507-5.342-6.507c-2.41,0-3.513,1.175-4.964,2.922h-0.174
		L160.562,62.062L160.562,62.062z"/>
	<path style="fill-rule:evenodd;clip-rule:evenodd;fill:#FFFFFF;" d="M173.094,78.06h7.489V62.062h-7.489V78.06L173.094,78.06z
		 M176.838,53.386c-2.352,0-4.122,1.416-4.122,3.735c0,2.622,1.975,3.766,4.122,3.766c2.148,0,4.123-1.145,4.123-3.766
		C180.961,54.802,179.189,53.386,176.838,53.386L176.838,53.386z"/>
	<polygon style="fill:#FFFFFF;" points="181.223,62.062 187.986,78.06 194.779,78.06 201.485,62.062 193.444,62.062 191.848,67.666 
		191.47,69.625 191.267,69.625 189.264,62.062 181.223,62.062 	"/>
	<path style="fill-rule:evenodd;clip-rule:evenodd;fill:#FFFFFF;" d="M219.526,71.372c0.378-5.995-3.948-9.67-9.436-9.67
		c-4.905,0-8.854,3.314-8.854,8.616c0,5.513,4.441,8.104,9.29,8.104c3.541,0,7.692-1.777,8.68-5.634h-7.287
		c-0.145,0.753-0.726,1.326-1.509,1.326c-1.568,0-1.771-1.446-1.771-2.742H219.526L219.526,71.372z M208.64,68.058
		c0-1.114,0.552-2.079,1.684-2.079c1.074,0,1.829,0.995,1.829,2.079H208.64L208.64,68.058z"/>
	<path style="fill:#FFFFFF;" d="M233.599,61.701c-2.525-0.061-3.89,0.392-5.226,2.5h-0.174l0.174-2.139h-7.49V78.06h7.49v-6.146
		c0-1.988,0.987-3.193,2.933-3.193c0.958,0,1.509,0.392,2.293,0.874V61.701L233.599,61.701z"/>
	<path style="fill:#FFFFFF;" d="M232.986,76.644c2.235,0.994,4.616,1.777,7.055,1.777c3.483,0,7.461-1.717,7.461-5.875
		c0-3.224-2.178-4.188-4.849-4.64c-1.045-0.181-1.857-0.241-1.857-1.024c0-0.572,0.609-0.723,1.074-0.723
		c1.219,0,2.496,0.603,3.454,1.326l1.829-4.429c-1.684-0.964-4.064-1.355-5.98-1.355c-3.31,0-7.199,1.597-7.199,5.604
		c0,3.013,2.322,4.067,4.818,4.429c0.61,0.09,1.51,0.121,1.51,0.994c0,0.603-0.609,0.874-1.103,0.874
		c-1.277,0-2.787-0.813-3.832-1.476l-0.465-0.301L232.986,76.644L232.986,76.644z"/>
	<path style="fill-rule:evenodd;clip-rule:evenodd;fill:#FFFFFF;" d="M249.049,78.06h7.49V62.062h-7.49V78.06L249.049,78.06z
		 M252.794,53.386c-2.351,0-4.122,1.416-4.122,3.735c0,2.622,1.974,3.766,4.122,3.766s4.123-1.145,4.123-3.766
		C256.917,54.802,255.146,53.386,252.794,53.386L252.794,53.386z"/>
	<polygon style="fill:#FFFFFF;" points="267.339,56.911 259.791,56.911 259.791,62.273 257.962,62.153 257.962,68.269 
		259.791,68.118 259.791,78.06 267.339,78.06 267.339,68.118 269.836,68.269 269.836,62.153 267.339,62.273 267.339,56.911 	"/>
	<polygon style="fill:#FFFFFF;" points="268.163,62.062 274.753,76.463 270.775,84.657 278.672,84.657 288.543,62.062 
		280.676,62.062 278.963,68.329 278.585,70.77 278.382,70.77 277.946,68.329 276.233,62.062 268.163,62.062 	"/>
	<path style="fill-rule:evenodd;clip-rule:evenodd;fill:#FFFFFF;" d="M307.238,61.701c-5.08,0-9.348,2.952-9.348,8.556
		c0,5.302,4.528,8.164,9.348,8.164s9.348-2.862,9.348-8.164C316.586,64.653,312.318,61.701,307.238,61.701L307.238,61.701z
		 M307.238,67.787c1.248,0,2.09,1.055,2.09,2.35c0,1.265-0.929,2.199-2.09,2.199s-2.091-0.934-2.091-2.199
		C305.147,68.841,305.99,67.787,307.238,67.787L307.238,67.787z"/>
	<path style="fill:#FFFFFF;" d="M318.729,62.333l-2.032-0.271v6.236l2.032-0.211v9.972h7.49v-9.972l2.409,0.211v-6.236l-2.525,0.332
		v-0.603c0-1.055,0.29-2.139,1.567-2.139c0.349,0,0.639,0.121,1.017,0.271v-6.176c-1.104-0.181-2.177-0.361-3.28-0.361
		c-4.645,0-6.678,2.591-6.678,7.26V62.333L318.729,62.333z"/>
	<path style="fill:#FFFFFF;stroke:#FFFFFF;stroke-width:1.1231;stroke-miterlimit:3.8637;" d="M98.615,114.794L81.077,97.343
		c-0.086,0-0.173-0.087-0.346-0.087s-0.259,0.173-0.259,0.433l12.873,21.166l0.086,0.086c0,0.087-0.086,0.346-0.259,0.346
		c-0.259,0-0.259,0-0.346-0.087l-17.365-16.846c-0.086-0.173-0.259-0.173-0.432-0.173c-0.086,0-0.345,0.259-0.345,0.346l0,0
		l9.071,26.436c0,0.087,0,0.087,0,0.087c0,0.259-0.172,0.518-0.259,0.518c-0.259,0-0.432-0.173-0.605-0.432l-14.082-21.857
		c0-0.173-0.172-0.173-0.259-0.173c-0.346,0-0.432,0.173-0.432,0.346l4.061,33.261c0,0,0-0.086,0,0c0,0.26-0.173,0.346-0.432,0.346
		s-0.346-0.086-0.346-0.346l-10.453-30.582c0-0.173,0-0.173-0.259-0.173s-0.432,0-0.432,0.173l-3.456,45.355
		c-0.086,0.259-0.173,0.432-0.432,0.432c-0.172,0-0.345-0.173-0.345-0.432l-3.542-45.355c0-0.173-0.086-0.346-0.259-0.346
		c-0.259,0-0.432,0-0.519,0.259l-10.367,30.583c-0.086,0.173-0.259,0.346-0.259,0.346c-0.259,0-0.518-0.26-0.518-0.519
		c0-0.086,0-0.086,0-0.086l3.974-32.916l0,0c0-0.346-0.173-0.346-0.346-0.346c-0.086,0-0.259,0-0.432,0l-14.168,22.03
		c0,0.259-0.173,0.259-0.346,0.259c-0.086,0-0.346-0.259-0.346-0.345c0-0.087,0-0.087,0-0.087l8.985-26.436l0,0
		c0-0.346-0.086-0.519-0.173-0.519c-0.346,0-0.432,0.086-0.518,0.173l-17.279,17.019c-0.173,0.087-0.173,0.087-0.259,0.087
		c-0.173,0-0.519-0.259-0.519-0.346c0,0,0-0.086,0.173-0.259L32.093,97.86c0,0,0-0.604-0.259-0.604c0,0-0.086,0.087-0.259,0.26
		l-17.365,17.278l42.332,42.159L98.615,114.794L98.615,114.794z"/>
	<path style="fill:#FFFFFF;" d="M77.362,67.278l22.03-12.786c0.086,0,0.086,0,0.259,0c0.259,0,0.346,0.172,0.346,0.432
		c0,0.086,0,0.259-0.086,0.259L56.542,94.405L13.259,55.27C13.173,55.183,13,55.183,13,55.01s0.259-0.518,0.432-0.518
		c0.086,0,0.086,0,0.173,0l22.203,13.045l0,0c0.173,0,0.345-0.086,0.345-0.432c0,0,0,0-0.086-0.086L25.354,40.842v-0.086
		c0-0.259,0.346-0.519,0.519-0.519c0.172,0,0.345,0.086,0.345,0.173l16.069,20.389c0.086,0.172,0.259,0.172,0.345,0.172
		c0.173,0,0.346-0.172,0.346-0.432c0,0,0,0,0-0.086l-4.665-32.656c0-0.346,0.259-0.432,0.604-0.432c0.086,0,0.259,0.086,0.346,0.259
		l12.095,29.373c0,0.346,0,0.432,0.173,0.432c0.259,0,0.432-0.259,0.432-0.432l4.233-46.565c0-0.173,0.086-0.432,0.345-0.432
		s0.346,0.259,0.346,0.432l4.147,46.479c0,0.259,0.086,0.518,0.432,0.518c0.086,0,0.346-0.259,0.346-0.432L73.82,27.451
		c0.086-0.086,0.173-0.346,0.173-0.346c0.259,0,0.519,0.259,0.519,0.519l0,0L69.933,60.54l0,0c0,0.259,0.172,0.432,0.432,0.432
		c0.173,0,0.259,0,0.346-0.086L86.779,40.41c0.086-0.086,0.173-0.173,0.173-0.173c0.346,0,0.519,0.173,0.519,0.519v0.086
		L76.844,66.933c0,0,0,0,0,0.086s0,0.259,0.432,0.259H77.362L77.362,67.278z"/>
</g>
</svg>
